<svg width="50" height="50" viewBox="0 0 10 10" fill="none" xmlns="http://www.w3.org/2000/svg">
<g clip-path="url(#clip0_117_2)">
<path fill-rule="evenodd" clip-rule="evenodd" d="M5 10C7.76142 10 10 7.76142 10 5C10 2.23858 7.76142 0 5 0C2.23858 0 0 2.23858 0 5C0 7.76142 2.23858 10 5 10ZM2.5 8V4L5 1.5L7.5 4V8H2.5Z" fill="aliceblue"/>
<path d="M4.5 6.5V8C4.5 8.27614 4.72386 8.5 5 8.5C5.27614 8.5 5.5 8.27614 5.5 8V6.5C5.5 6.22386 5.27614 6 5 6C4.72386 6 4.5 6.22386 4.5 6.5Z" fill="aliceblue" stroke="aliceblue" stroke-width="0.5"/>
</g>
<defs>
<clipPath id="clip0_117_2">
<rect width="10" height="10" fill="white"/>
</clipPath>
</defs>
</svg>
