<svg xmlns="http://www.w3.org/2000/svg" viewBox="0 0 200 200" fill="none">
  <style type="text/css">
    #b-path {
      transform: translate(100px, 100px);
      animation: b_anim infinite 20s ease forwards;
    }
    #b {
      fill: url(#grad)
    }
    @keyframes t_anim {
      25% { d: path("M-65.17 26.34C-40.14 21.76-30.99 41.15-1.38 27.15 26.98 2 41.15 18.53 50.58 16.11") }
      50% { d: path("M-53.75 44.61C-48.66 9.51-7.22 26.3-.35-2.44 10.84-28.12 32.96-23.03 36.27-33.2") }
      75% { d: path("M-45.31-39.13C-27.43-10.3-12.21-23.92-.35-2.44 13.15 18.79 41.98 4.11 69.21 19.86") }
    }
    @keyframes b_anim {
      25% { d: path("M31,-41.9C41.5,-35,52.4,-27.8,60,-16.6C67.6,-5.4,72.1,9.7,71.3,26.6C70.5,43.4,64.5,61.9,51.7,67.5C39,73,19.5,65.5,0.7,64.6C-18.2,63.7,-36.3,69.3,-50.2,64.2C-64.1,59,-73.7,43,-79.2,25.8C-84.7,8.6,-86.1,-9.9,-78.9,-23.6C-71.7,-37.4,-55.9,-46.3,-41.4,-51.9C-26.8,-57.5,-13.4,-59.6,-1.6,-57.4C10.2,-55.2,20.5,-48.7,31,-41.9Z") }
      50% { d: path("M36.8,-50.2C49.5,-41.4,62.9,-33.1,66.8,-21.6C70.7,-10,65.3,4.7,57.5,15.6C49.7,26.6,39.7,33.7,29.7,45.4C19.8,57,9.9,73.2,-4,78.7C-18,84.3,-35.9,79.3,-48.8,68.5C-61.6,57.8,-69.3,41.4,-74.2,24.6C-79,7.7,-81,-9.6,-73.2,-20.7C-65.4,-31.8,-47.8,-36.7,-34,-45.1C-20.1,-53.5,-10.1,-65.5,1,-66.9C12,-68.3,24.1,-59,36.8,-50.2Z") }
      75% { d: path("M42-55.7C56-47.6 70.1-37.5 78.7-22.8 87.3-8.1 90.4 11.1 85.9 28.8 81.4 46.4 69.2 62.5 53.6 69.4 38 76.3 19 74.1 2.6 70.5-13.8 66.9-27.5 61.9-38.3 53.4-49.1 44.9-56.9 33-61.4 19.8-65.8 6.6-67-7.8-65-23.3-62.9-38.9-57.7-55.6-46.4-64.6-35-73.6-17.5-75-1.8-72.6 14-70.1 27.9-63.9 42-55.7Z") }
    }
    
  </style>
  <g id="blobs">
    <use id="b" href="#b-path" />
  </g>
  <defs>
    <path id="b-path" d="M33.6-46C45.8-37.4 59.6-30.6 64-20.1 68.4-9.6 63.4 4.7 59.2 19.8 55.1 34.9 51.8 50.9 42.1 59.2 32.4 67.5 16.2 68.2-.6 69-17.4 69.9-34.9 71-46.4 63.2-57.8 55.5-63.4 38.9-69.3 22.2-75.2 5.4-81.5-11.5-78.2-26.6-75-41.7-62.3-55-47.6-62.8-33-70.7-16.5-73.2-2.9-69.2 10.7-65.1 21.4-54.6 33.6-46Z"/>
    <linearGradient id="grad" x1="0%" y1="0%" x2="100%" y2="0%">
      <stop offset="0%" style="stop-color: #3f3f3f0f; stopOpacity: 0.5" />
      <stop offset="100%" style="stop-color: #3f3f3f0f; stopOpacity: 0.5" />
    </linearGradient>
  </defs>
</svg>