<svg height="45" viewBox="0 0 24 24" fill="none" xmlns="http://www.w3.org/2000/svg">
<path filter="drop-shadow(1px 1px 1 #000b)" d="M6.69 11.6C6.69 11.1 6.99 10.8 7.49 10.8H7.49L8.79 10.8C9.09 10.8 9.49 11.1 9.49 11.6V16.4C9.59 16.4 9.89 16.3 9.99 16.2 10.29 16.1 10.49 15.9 10.49 15.6V9.7C10.49 9.3 10.89 8.9 11.29 8.9H12.49C12.99 8.9 13.29 9.3 13.29 9.7V15.2C13.29 15.2 13.59 15.1 13.99 14.9 14.29 14.9 14.39 14.7 14.39 14.3V7.8C14.39 7.3 14.59 7 15.09 7H16.29C16.79 7 17.09 7.3 17.09 7.8V13.2C18.29 12.4 19.29 11.4 20.29 10.3 20.59 9.9 20.59 9.5 20.49 9.1 18.79 4.4 13.59 1.9 8.99 3.5 4.39 5.1 1.79 10.3 3.49 14.9 3.69 15.6 3.79 16 4.19 16.5 4.39 16.9 4.89 17.1 5.19 17.1 5.49 17.1 5.69 17.1 6.19 17 6.49 17 6.69 16.7 6.69 16.4V11.6M6.69 19.3C10.59 22.2 16.29 21.3 19.29 17.3 20.29 15.8 20.99 13.9 20.99 12 20.99 11.8 20.99 11.6 20.99 11.3 17.59 16.3 11.49 18.6 6.69 19.3Z" fill="aliceblue"/>
</svg>