<svg height="45" viewBox="0 0 24 24" fill="none" xmlns="http://www.w3.org/2000/svg">
<path filter="drop-shadow(1px 1px 1 #000b)" d="M12 3C6 3 3 8 3 12 3 18 8 21 12 21 19 21 21 15 21 12 21 6 16 3 12 3ZM5.92 12.403 5.971 12.322 9.094 7.438C9.1045 7.4219 9.119 7.409 9.1362 7.4005 9.1534 7.392 9.1725 7.3883 9.1916 7.3897 9.2108 7.3911 9.2291 7.3977 9.2448 7.4086 9.2606 7.4196 9.273 7.4346 9.281 7.452 9.801 8.621 10.253 10.075 10.041 10.98 9.953 11.352 9.706 11.856 9.427 12.322 9.3912 12.3902 9.3522 12.4566 9.31 12.521 9.2999 12.5354 9.2864 12.547 9.2707 12.5549 9.255 12.5627 9.2376 12.5665 9.22 12.566H6.013C5.9939 12.5663 5.975 12.5614 5.9584 12.5518 5.9418 12.5423 5.9281 12.5284 5.9188 12.5117 5.9095 12.495 5.9048 12.476 5.9054 12.4569 5.906 12.4378 5.9117 12.4191 5.922 12.403H5.92ZM19.834 14.083C19.8342 14.1044 19.8282 14.1253 19.8167 14.1433 19.8051 14.1612 19.7885 14.1754 19.769 14.184 19.526 14.287 18.699 14.669 18.355 15.146 17.477 16.368 16.807 18.116 15.307 18.116H9.053C8.525 18.1152 8.0023 18.0104 7.5148 17.8075 7.0273 17.6046 6.5845 17.3076 6.2118 16.9336 5.8392 16.5595 5.5438 16.1156 5.3428 15.6274 5.1417 15.1391 5.0388 14.616 5.04 14.088V14.016C5.04 13.958 5.088 13.91 5.148 13.91H8.633C8.703 13.91 8.753 13.973 8.748 14.042 8.722 14.268 8.765 14.501 8.873 14.712 9.079 15.132 9.509 15.394 9.972 15.394H11.698V14.047H9.99C9.97 14.0468 9.9504 14.0411 9.9334 14.0306 9.9163 14.0201 9.9025 14.0051 9.8933 13.9873 9.8842 13.9695 9.8801 13.9496 9.8814 13.9296 9.8828 13.9096 9.8895 13.8904 9.901 13.874L9.964 13.784C10.124 13.553 10.355 13.198 10.585 12.792 10.741 12.518 10.893 12.226 11.015 11.932 11.039 11.88 11.058 11.825 11.08 11.772 11.113 11.678 11.147 11.59 11.171 11.503 11.1946 11.4292 11.2162 11.3549 11.236 11.28 11.293 11.03 11.317 10.766 11.317 10.493 11.317 10.385 11.313 10.272 11.303 10.166 11.298 10.049 11.283 9.931 11.269 9.814 11.2578 9.7093 11.2418 9.6052 11.221 9.502 11.1941 9.3448 11.1614 9.1887 11.123 9.034L11.109 8.974C11.079 8.866 11.053 8.764 11.019 8.657 10.9238 8.3284 10.8143 8.0041 10.691 7.685 10.648 7.565 10.6007 7.4466 10.549 7.33 10.477 7.152 10.403 6.991 10.336 6.84 10.3027 6.7753 10.2713 6.7096 10.242 6.643 10.2095 6.5711 10.1751 6.5001 10.139 6.43 10.115 6.377 10.086 6.326 10.067 6.278L9.856 5.89C9.827 5.837 9.875 5.772 9.933 5.789L11.253 6.146H11.263L11.436 6.196 11.628 6.25 11.698 6.269V5.486C11.698 5.107 12 4.8 12.377 4.8 12.466 4.7998 12.5542 4.8175 12.6361 4.8522 12.7181 4.887 12.7922 4.9379 12.854 5.002 12.9817 5.1308 13.0535 5.3046 13.054 5.486V6.65L13.195 6.689C13.205 6.694 13.217 6.699 13.226 6.706 13.26 6.73 13.31 6.768 13.373 6.816 13.423 6.854 13.476 6.902 13.538 6.953 13.7355 7.1139 13.9269 7.282 14.112 7.457 14.326 7.656 14.566 7.889 14.796 8.148 14.861 8.222 14.923 8.294 14.988 8.374 15.05 8.453 15.12 8.53 15.178 8.606 15.257 8.71 15.338 8.818 15.413 8.93 15.446 8.983 15.487 9.038 15.518 9.091 15.614 9.233 15.696 9.379 15.775 9.526 15.809 9.593 15.842 9.667 15.871 9.739 15.96 9.936 16.03 10.135 16.073 10.337 16.0872 10.3799 16.0969 10.4241 16.102 10.469V10.479C16.116 10.536 16.121 10.599 16.126 10.663 16.1542 10.9586 16.118 11.2567 16.02 11.537 15.989 11.621 15.96 11.707 15.922 11.791 15.847 11.961 15.761 12.134 15.658 12.293 15.624 12.353 15.583 12.415 15.545 12.475 15.502 12.538 15.456 12.598 15.418 12.655 15.363 12.7307 15.3053 12.8044 15.245 12.876 15.192 12.948 15.139 13.02 15.079 13.085 14.998 13.183 14.919 13.275 14.834 13.363 14.786 13.421 14.734 13.481 14.678 13.533 14.626 13.593 14.57 13.646 14.522 13.694 14.438 13.778 14.372 13.841 14.314 13.896L14.177 14.018C14.1579 14.0371 14.132 14.0479 14.105 14.048H13.054V15.394H14.376C14.671 15.394 14.952 15.29 15.18 15.096 15.257 15.029 15.595 14.736 15.996 14.294 16.0091 14.279 16.0266 14.2684 16.046 14.264L19.696 13.207C19.712 13.2024 19.7289 13.2015 19.7453 13.2045 19.7617 13.2075 19.7772 13.2142 19.7906 13.2242 19.804 13.2342 19.8148 13.2471 19.8224 13.262 19.8299 13.2769 19.8339 13.2933 19.834 13.31V14.083Z" fill="aliceblue"/>
</svg>