<svg height="45px" viewBox="0 0 24 24" fill="none" xmlns="http://www.w3.org/2000/svg">
  <path id="logo" d="M12 3C6 3 3 8 3 12 3 18 8 21 12 21 18 21 21 16 21 12 21 6 16 3 12 3ZM16.8813 9.83C16.8863 9.9325 16.8875 10.035 16.8875 10.135 16.8875 13.26 14.5113 16.8613 10.1638 16.8613 8.8791 16.8634 7.6212 16.4944 6.5412 15.7987 6.725 15.8212 6.9138 15.83 7.105 15.83 8.2125 15.83 9.2312 15.4538 10.04 14.8188 9.5472 14.8091 9.0696 14.6459 8.6739 14.3519 8.2782 14.0579 7.9841 13.6478 7.8325 13.1788 8.1864 13.2461 8.5511 13.2319 8.8987 13.1375 8.3638 13.0293 7.8827 12.7395 7.5371 12.3171 7.1915 11.8947 7.0026 11.3658 7.0025 10.82V10.7913C7.3213 10.9675 7.6863 11.075 8.0738 11.0875 7.5723 10.7537 7.2172 10.2408 7.0813 9.6539 6.9454 9.067 7.0388 8.4503 7.3425 7.93 7.9362 8.66 8.6766 9.2572 9.5157 9.6829 10.3548 10.1086 11.274 10.3533 12.2137 10.4013 12.0943 9.8941 12.1457 9.3618 12.36 8.8869 12.5743 8.412 12.9395 8.0212 13.3988 7.7753 13.8582 7.5294 14.3858 7.4421 14.8999 7.5271 15.4139 7.612 15.8855 7.8644 16.2413 8.245 16.7702 8.1403 17.2775 7.9463 17.7413 7.6712 17.565 8.2189 17.1958 8.684 16.7025 8.98 17.1711 8.9236 17.6286 8.7976 18.06 8.6062 17.7431 9.0811 17.3439 9.4955 16.8813 9.83V9.83Z" fill="aliceblue" filter="drop-shadow(1px 1px 1 #000b)" />
</svg>
